<mxfile host="65bd71144e">
    <diagram id="LIGyKeHG6E3g_IGARjbb" name="Page-1">
        <mxGraphModel dx="897" dy="398" grid="1" gridSize="10" guides="1" tooltips="1" connect="1" arrows="1" fold="1" page="1" pageScale="1" pageWidth="3300" pageHeight="4681" math="0" shadow="0">
            <root>
                <mxCell id="0"/>
                <mxCell id="1" parent="0"/>
                <mxCell id="QJeN3EcIffllmoqfH-Ic-5" style="edgeStyle=none;html=1;exitX=1;exitY=0.5;exitDx=0;exitDy=0;" edge="1" parent="1" source="2" target="QJeN3EcIffllmoqfH-Ic-3">
                    <mxGeometry relative="1" as="geometry"/>
                </mxCell>
                <mxCell id="2" value="Start the &lt;br&gt;Application" style="rounded=0;whiteSpace=wrap;html=1;" vertex="1" parent="1">
                    <mxGeometry x="1" y="200" width="80" height="60" as="geometry"/>
                </mxCell>
                <mxCell id="QJeN3EcIffllmoqfH-Ic-72" style="edgeStyle=none;html=1;exitX=1;exitY=0.5;exitDx=0;exitDy=0;" edge="1" parent="1" source="QJeN3EcIffllmoqfH-Ic-3">
                    <mxGeometry relative="1" as="geometry">
                        <mxPoint x="240" y="229.57142857142856" as="targetPoint"/>
                    </mxGeometry>
                </mxCell>
                <mxCell id="QJeN3EcIffllmoqfH-Ic-3" value="Landing&lt;br&gt;Page" style="rounded=0;whiteSpace=wrap;html=1;" vertex="1" parent="1">
                    <mxGeometry x="121" y="200" width="79" height="60" as="geometry"/>
                </mxCell>
                <mxCell id="QJeN3EcIffllmoqfH-Ic-12" style="edgeStyle=none;html=1;entryX=0;entryY=0.5;entryDx=0;entryDy=0;" edge="1" parent="1" source="QJeN3EcIffllmoqfH-Ic-7" target="QJeN3EcIffllmoqfH-Ic-11">
                    <mxGeometry relative="1" as="geometry">
                        <Array as="points">
                            <mxPoint x="399" y="280"/>
                        </Array>
                    </mxGeometry>
                </mxCell>
                <mxCell id="QJeN3EcIffllmoqfH-Ic-31" value="Continue" style="edgeLabel;html=1;align=center;verticalAlign=middle;resizable=0;points=[];" vertex="1" connectable="0" parent="QJeN3EcIffllmoqfH-Ic-12">
                    <mxGeometry x="-0.2288" y="3" relative="1" as="geometry">
                        <mxPoint x="35" y="3" as="offset"/>
                    </mxGeometry>
                </mxCell>
                <mxCell id="QJeN3EcIffllmoqfH-Ic-13" style="edgeStyle=none;html=1;exitX=0.5;exitY=0;exitDx=0;exitDy=0;entryX=0;entryY=0.5;entryDx=0;entryDy=0;" edge="1" parent="1" source="QJeN3EcIffllmoqfH-Ic-7" target="QJeN3EcIffllmoqfH-Ic-10">
                    <mxGeometry relative="1" as="geometry">
                        <Array as="points">
                            <mxPoint x="399" y="160"/>
                            <mxPoint x="439" y="160"/>
                        </Array>
                    </mxGeometry>
                </mxCell>
                <mxCell id="QJeN3EcIffllmoqfH-Ic-30" value="Start" style="edgeLabel;html=1;align=center;verticalAlign=middle;resizable=0;points=[];" vertex="1" connectable="0" parent="QJeN3EcIffllmoqfH-Ic-13">
                    <mxGeometry x="-0.3199" relative="1" as="geometry">
                        <mxPoint as="offset"/>
                    </mxGeometry>
                </mxCell>
                <mxCell id="QJeN3EcIffllmoqfH-Ic-7" value="Start /&amp;nbsp;&lt;br&gt;Continue" style="rhombus;whiteSpace=wrap;html=1;" vertex="1" parent="1">
                    <mxGeometry x="360" y="190" width="80" height="80" as="geometry"/>
                </mxCell>
                <mxCell id="QJeN3EcIffllmoqfH-Ic-17" style="edgeStyle=none;html=1;exitX=1;exitY=0.5;exitDx=0;exitDy=0;entryX=0;entryY=0.5;entryDx=0;entryDy=0;" edge="1" parent="1" source="QJeN3EcIffllmoqfH-Ic-10" target="QJeN3EcIffllmoqfH-Ic-14">
                    <mxGeometry relative="1" as="geometry">
                        <mxPoint x="639.9999999999999" y="160.09302325581393" as="targetPoint"/>
                        <mxPoint x="560" y="190" as="sourcePoint"/>
                    </mxGeometry>
                </mxCell>
                <mxCell id="QJeN3EcIffllmoqfH-Ic-10" value="Start New Game" style="rounded=0;whiteSpace=wrap;html=1;" vertex="1" parent="1">
                    <mxGeometry x="480" y="130" width="80" height="60" as="geometry"/>
                </mxCell>
                <mxCell id="QJeN3EcIffllmoqfH-Ic-59" style="edgeStyle=none;html=1;exitX=1;exitY=0.5;exitDx=0;exitDy=0;entryX=0;entryY=1;entryDx=0;entryDy=0;" edge="1" parent="1" source="QJeN3EcIffllmoqfH-Ic-11" target="QJeN3EcIffllmoqfH-Ic-57">
                    <mxGeometry relative="1" as="geometry"/>
                </mxCell>
                <mxCell id="QJeN3EcIffllmoqfH-Ic-11" value="Continue Previous Game" style="rounded=0;whiteSpace=wrap;html=1;" vertex="1" parent="1">
                    <mxGeometry x="640" y="250" width="80" height="60" as="geometry"/>
                </mxCell>
                <mxCell id="QJeN3EcIffllmoqfH-Ic-23" style="edgeStyle=none;html=1;exitX=0;exitY=0;exitDx=0;exitDy=0;entryX=0.5;entryY=1;entryDx=0;entryDy=0;" edge="1" parent="1" source="QJeN3EcIffllmoqfH-Ic-14" target="QJeN3EcIffllmoqfH-Ic-19">
                    <mxGeometry relative="1" as="geometry"/>
                </mxCell>
                <mxCell id="QJeN3EcIffllmoqfH-Ic-25" style="edgeStyle=none;html=1;exitX=0.5;exitY=0;exitDx=0;exitDy=0;entryX=0.5;entryY=1;entryDx=0;entryDy=0;" edge="1" parent="1" source="QJeN3EcIffllmoqfH-Ic-14" target="QJeN3EcIffllmoqfH-Ic-20">
                    <mxGeometry relative="1" as="geometry"/>
                </mxCell>
                <mxCell id="QJeN3EcIffllmoqfH-Ic-26" style="edgeStyle=none;html=1;exitX=0.5;exitY=0;exitDx=0;exitDy=0;entryX=0.5;entryY=1;entryDx=0;entryDy=0;" edge="1" parent="1" source="QJeN3EcIffllmoqfH-Ic-14" target="QJeN3EcIffllmoqfH-Ic-21">
                    <mxGeometry relative="1" as="geometry"/>
                </mxCell>
                <mxCell id="QJeN3EcIffllmoqfH-Ic-27" style="edgeStyle=none;html=1;exitX=1;exitY=0;exitDx=0;exitDy=0;entryX=0.5;entryY=1;entryDx=0;entryDy=0;" edge="1" parent="1" source="QJeN3EcIffllmoqfH-Ic-14" target="QJeN3EcIffllmoqfH-Ic-22">
                    <mxGeometry relative="1" as="geometry"/>
                </mxCell>
                <mxCell id="QJeN3EcIffllmoqfH-Ic-58" style="edgeStyle=none;html=1;exitX=1;exitY=1;exitDx=0;exitDy=0;entryX=0;entryY=0;entryDx=0;entryDy=0;" edge="1" parent="1" source="QJeN3EcIffllmoqfH-Ic-14" target="QJeN3EcIffllmoqfH-Ic-57">
                    <mxGeometry relative="1" as="geometry"/>
                </mxCell>
                <mxCell id="QJeN3EcIffllmoqfH-Ic-14" value="Choose &lt;br&gt;Level" style="rhombus;whiteSpace=wrap;html=1;" vertex="1" parent="1">
                    <mxGeometry x="640" y="120" width="80" height="80" as="geometry"/>
                </mxCell>
                <mxCell id="QJeN3EcIffllmoqfH-Ic-19" value="easy" style="rounded=1;whiteSpace=wrap;html=1;" vertex="1" parent="1">
                    <mxGeometry x="560" y="50" width="40" height="40" as="geometry"/>
                </mxCell>
                <mxCell id="QJeN3EcIffllmoqfH-Ic-20" value="medium" style="rounded=1;whiteSpace=wrap;html=1;" vertex="1" parent="1">
                    <mxGeometry x="620" y="50" width="50" height="40" as="geometry"/>
                </mxCell>
                <mxCell id="QJeN3EcIffllmoqfH-Ic-21" value="hard" style="rounded=1;whiteSpace=wrap;html=1;" vertex="1" parent="1">
                    <mxGeometry x="690" y="50" width="40" height="40" as="geometry"/>
                </mxCell>
                <mxCell id="QJeN3EcIffllmoqfH-Ic-22" value="extreme" style="rounded=1;whiteSpace=wrap;html=1;" vertex="1" parent="1">
                    <mxGeometry x="750" y="50" width="50" height="40" as="geometry"/>
                </mxCell>
                <mxCell id="QJeN3EcIffllmoqfH-Ic-45" style="edgeStyle=none;html=1;exitX=0.5;exitY=0;exitDx=0;exitDy=0;entryX=0;entryY=0.5;entryDx=0;entryDy=0;fillColor=#60a917;strokeColor=#2D7600;" edge="1" parent="1" source="QJeN3EcIffllmoqfH-Ic-36">
                    <mxGeometry relative="1" as="geometry">
                        <mxPoint x="1239" y="427" as="targetPoint"/>
                        <Array as="points">
                            <mxPoint x="1159" y="427"/>
                        </Array>
                    </mxGeometry>
                </mxCell>
                <mxCell id="QJeN3EcIffllmoqfH-Ic-47" value="Yes" style="edgeLabel;html=1;align=center;verticalAlign=middle;resizable=0;points=[];" vertex="1" connectable="0" parent="QJeN3EcIffllmoqfH-Ic-45">
                    <mxGeometry x="-0.4273" relative="1" as="geometry">
                        <mxPoint as="offset"/>
                    </mxGeometry>
                </mxCell>
                <mxCell id="QJeN3EcIffllmoqfH-Ic-46" style="edgeStyle=none;html=1;exitX=0.5;exitY=1;exitDx=0;exitDy=0;entryX=0.5;entryY=1;entryDx=0;entryDy=0;fillColor=#a20025;strokeColor=#6F0000;" edge="1" parent="1" source="QJeN3EcIffllmoqfH-Ic-36" target="QJeN3EcIffllmoqfH-Ic-57">
                    <mxGeometry relative="1" as="geometry">
                        <mxPoint x="1239" y="547" as="targetPoint"/>
                        <Array as="points">
                            <mxPoint x="1159" y="547"/>
                            <mxPoint x="810" y="547"/>
                        </Array>
                    </mxGeometry>
                </mxCell>
                <mxCell id="QJeN3EcIffllmoqfH-Ic-48" value="No" style="edgeLabel;html=1;align=center;verticalAlign=middle;resizable=0;points=[];" vertex="1" connectable="0" parent="QJeN3EcIffllmoqfH-Ic-46">
                    <mxGeometry x="-0.4549" y="2" relative="1" as="geometry">
                        <mxPoint as="offset"/>
                    </mxGeometry>
                </mxCell>
                <mxCell id="QJeN3EcIffllmoqfH-Ic-36" value="Solved?" style="rhombus;whiteSpace=wrap;html=1;" vertex="1" parent="1">
                    <mxGeometry x="1120" y="447" width="80" height="80" as="geometry"/>
                </mxCell>
                <mxCell id="QJeN3EcIffllmoqfH-Ic-51" value="Congrats!" style="shape=step;perimeter=stepPerimeter;fixedSize=1;points=[];whiteSpace=wrap;html=1;" vertex="1" parent="1">
                    <mxGeometry x="1228" y="400" width="100" height="57" as="geometry"/>
                </mxCell>
                <mxCell id="QJeN3EcIffllmoqfH-Ic-52" value="Completion&lt;br&gt;Time" style="shape=step;perimeter=stepPerimeter;fixedSize=1;points=[];whiteSpace=wrap;html=1;" vertex="1" parent="1">
                    <mxGeometry x="1328" y="400" width="100" height="57" as="geometry"/>
                </mxCell>
                <mxCell id="QJeN3EcIffllmoqfH-Ic-53" value="Mistakes&lt;br&gt;Count" style="shape=step;perimeter=stepPerimeter;fixedSize=1;points=[];whiteSpace=wrap;html=1;" vertex="1" parent="1">
                    <mxGeometry x="1428" y="400" width="100" height="57" as="geometry"/>
                </mxCell>
                <mxCell id="QJeN3EcIffllmoqfH-Ic-66" style="edgeStyle=none;html=1;exitX=0.5;exitY=1;exitDx=0;exitDy=0;fillColor=#a20025;strokeColor=#6F0000;entryX=0;entryY=0.5;entryDx=0;entryDy=0;" edge="1" parent="1" source="QJeN3EcIffllmoqfH-Ic-57" target="QJeN3EcIffllmoqfH-Ic-77">
                    <mxGeometry relative="1" as="geometry">
                        <mxPoint x="878" y="280" as="targetPoint"/>
                        <Array as="points">
                            <mxPoint x="810" y="310"/>
                            <mxPoint x="848" y="310"/>
                        </Array>
                    </mxGeometry>
                </mxCell>
                <mxCell id="QJeN3EcIffllmoqfH-Ic-71" value="No" style="edgeLabel;html=1;align=center;verticalAlign=middle;resizable=0;points=[];" vertex="1" connectable="0" parent="QJeN3EcIffllmoqfH-Ic-66">
                    <mxGeometry x="-0.3667" relative="1" as="geometry">
                        <mxPoint x="38" y="12" as="offset"/>
                    </mxGeometry>
                </mxCell>
                <mxCell id="QJeN3EcIffllmoqfH-Ic-57" value="Pause?" style="rhombus;whiteSpace=wrap;html=1;" vertex="1" parent="1">
                    <mxGeometry x="768" y="180" width="80" height="80" as="geometry"/>
                </mxCell>
                <mxCell id="QJeN3EcIffllmoqfH-Ic-63" style="edgeStyle=none;html=1;exitX=1;exitY=0.5;exitDx=0;exitDy=0;" edge="1" parent="1" source="QJeN3EcIffllmoqfH-Ic-61">
                    <mxGeometry relative="1" as="geometry">
                        <mxPoint x="998" y="157.16666666666674" as="targetPoint"/>
                    </mxGeometry>
                </mxCell>
                <mxCell id="QJeN3EcIffllmoqfH-Ic-61" value="Save the&lt;br&gt;progress" style="rounded=0;whiteSpace=wrap;html=1;" vertex="1" parent="1">
                    <mxGeometry x="878" y="127" width="80" height="60" as="geometry"/>
                </mxCell>
                <mxCell id="QJeN3EcIffllmoqfH-Ic-92" style="edgeStyle=none;html=1;exitX=1;exitY=0.5;exitDx=0;exitDy=0;fontSize=15;" edge="1" parent="1" source="QJeN3EcIffllmoqfH-Ic-64" target="QJeN3EcIffllmoqfH-Ic-93">
                    <mxGeometry relative="1" as="geometry">
                        <mxPoint x="1120" y="157" as="targetPoint"/>
                    </mxGeometry>
                </mxCell>
                <mxCell id="QJeN3EcIffllmoqfH-Ic-64" value="&lt;span style=&quot;text-align: left; font-size: 12px;&quot;&gt;&lt;font style=&quot;font-size: 12px;&quot;&gt;Game History List&lt;/font&gt;&lt;/span&gt;" style="rounded=0;whiteSpace=wrap;html=1;fontSize=12;" vertex="1" parent="1">
                    <mxGeometry x="998" y="127" width="80" height="60" as="geometry"/>
                </mxCell>
                <mxCell id="QJeN3EcIffllmoqfH-Ic-60" style="edgeStyle=none;html=1;exitX=0.5;exitY=0;exitDx=0;exitDy=0;fillColor=#60a917;strokeColor=#2D7600;" edge="1" parent="1" source="QJeN3EcIffllmoqfH-Ic-57">
                    <mxGeometry relative="1" as="geometry">
                        <mxPoint x="878" y="160" as="targetPoint"/>
                        <Array as="points">
                            <mxPoint x="808" y="160"/>
                        </Array>
                    </mxGeometry>
                </mxCell>
                <mxCell id="QJeN3EcIffllmoqfH-Ic-62" value="Yes" style="edgeLabel;html=1;align=center;verticalAlign=middle;resizable=0;points=[];" vertex="1" connectable="0" parent="QJeN3EcIffllmoqfH-Ic-60">
                    <mxGeometry x="-0.1732" y="1" relative="1" as="geometry">
                        <mxPoint as="offset"/>
                    </mxGeometry>
                </mxCell>
                <mxCell id="QJeN3EcIffllmoqfH-Ic-76" style="edgeStyle=none;html=1;exitX=1;exitY=0.5;exitDx=0;exitDy=0;entryX=0;entryY=0.5;entryDx=0;entryDy=0;" edge="1" parent="1" source="QJeN3EcIffllmoqfH-Ic-74" target="QJeN3EcIffllmoqfH-Ic-7">
                    <mxGeometry relative="1" as="geometry"/>
                </mxCell>
                <mxCell id="QJeN3EcIffllmoqfH-Ic-74" value="Change&lt;br&gt;Theme" style="rounded=0;whiteSpace=wrap;html=1;" vertex="1" parent="1">
                    <mxGeometry x="240" y="200" width="79" height="60" as="geometry"/>
                </mxCell>
                <mxCell id="QJeN3EcIffllmoqfH-Ic-78" style="edgeStyle=none;html=1;exitX=0.5;exitY=0;exitDx=0;exitDy=0;fillColor=#60a917;strokeColor=#2D7600;entryX=0;entryY=0.5;entryDx=0;entryDy=0;" edge="1" parent="1" source="QJeN3EcIffllmoqfH-Ic-77" target="QJeN3EcIffllmoqfH-Ic-82">
                    <mxGeometry relative="1" as="geometry">
                        <mxPoint x="1000" y="250" as="targetPoint"/>
                        <Array as="points">
                            <mxPoint x="920" y="250"/>
                        </Array>
                    </mxGeometry>
                </mxCell>
                <mxCell id="QJeN3EcIffllmoqfH-Ic-80" value="Yes" style="edgeLabel;html=1;align=center;verticalAlign=middle;resizable=0;points=[];" vertex="1" connectable="0" parent="QJeN3EcIffllmoqfH-Ic-78">
                    <mxGeometry x="-0.2879" relative="1" as="geometry">
                        <mxPoint as="offset"/>
                    </mxGeometry>
                </mxCell>
                <mxCell id="QJeN3EcIffllmoqfH-Ic-79" style="edgeStyle=none;html=1;exitX=0.5;exitY=1;exitDx=0;exitDy=0;fillColor=#a20025;strokeColor=#6F0000;entryX=0;entryY=0.5;entryDx=0;entryDy=0;" edge="1" parent="1" source="QJeN3EcIffllmoqfH-Ic-77" target="QJeN3EcIffllmoqfH-Ic-84">
                    <mxGeometry relative="1" as="geometry">
                        <mxPoint x="1000" y="370" as="targetPoint"/>
                        <Array as="points">
                            <mxPoint x="920" y="390"/>
                        </Array>
                    </mxGeometry>
                </mxCell>
                <mxCell id="QJeN3EcIffllmoqfH-Ic-81" value="No" style="edgeLabel;html=1;align=center;verticalAlign=middle;resizable=0;points=[];" vertex="1" connectable="0" parent="QJeN3EcIffllmoqfH-Ic-79">
                    <mxGeometry x="-0.2719" y="2" relative="1" as="geometry">
                        <mxPoint as="offset"/>
                    </mxGeometry>
                </mxCell>
                <mxCell id="QJeN3EcIffllmoqfH-Ic-77" value="Verify?" style="rhombus;whiteSpace=wrap;html=1;" vertex="1" parent="1">
                    <mxGeometry x="880" y="270" width="80" height="80" as="geometry"/>
                </mxCell>
                <mxCell id="QJeN3EcIffllmoqfH-Ic-82" value="No / Show&amp;nbsp;&lt;br&gt;Mistakes" style="rounded=0;whiteSpace=wrap;html=1;" vertex="1" parent="1">
                    <mxGeometry x="1000" y="220" width="80" height="60" as="geometry"/>
                </mxCell>
                <mxCell id="QJeN3EcIffllmoqfH-Ic-86" value="Yes" style="edgeStyle=none;html=1;exitX=0.5;exitY=0;exitDx=0;exitDy=0;entryX=0;entryY=0.5;entryDx=0;entryDy=0;fillColor=#60a917;strokeColor=#2D7600;" edge="1" parent="1" source="QJeN3EcIffllmoqfH-Ic-84" target="QJeN3EcIffllmoqfH-Ic-88">
                    <mxGeometry relative="1" as="geometry">
                        <mxPoint x="1120" y="340" as="targetPoint"/>
                        <Array as="points">
                            <mxPoint x="1040" y="330"/>
                        </Array>
                    </mxGeometry>
                </mxCell>
                <mxCell id="QJeN3EcIffllmoqfH-Ic-87" value="No" style="edgeStyle=none;html=1;exitX=0.5;exitY=1;exitDx=0;exitDy=0;entryX=0;entryY=0.5;entryDx=0;entryDy=0;fillColor=#a20025;strokeColor=#6F0000;" edge="1" parent="1" source="QJeN3EcIffllmoqfH-Ic-84" target="QJeN3EcIffllmoqfH-Ic-36">
                    <mxGeometry relative="1" as="geometry">
                        <mxPoint x="1120" y="440" as="targetPoint"/>
                        <Array as="points">
                            <mxPoint x="1040" y="487"/>
                        </Array>
                    </mxGeometry>
                </mxCell>
                <mxCell id="QJeN3EcIffllmoqfH-Ic-84" value="Hint?" style="rhombus;whiteSpace=wrap;html=1;" vertex="1" parent="1">
                    <mxGeometry x="1000" y="350" width="80" height="80" as="geometry"/>
                </mxCell>
                <mxCell id="QJeN3EcIffllmoqfH-Ic-88" value="Show the &lt;br&gt;next step" style="rounded=0;whiteSpace=wrap;html=1;" vertex="1" parent="1">
                    <mxGeometry x="1120" y="300" width="80" height="60" as="geometry"/>
                </mxCell>
                <mxCell id="QJeN3EcIffllmoqfH-Ic-90" value="To be Displayed" style="text;html=1;align=center;verticalAlign=middle;resizable=0;points=[];autosize=1;strokeColor=none;fillColor=none;fontSize=15;fontStyle=1" vertex="1" parent="1">
                    <mxGeometry x="1308" y="360" width="140" height="30" as="geometry"/>
                </mxCell>
                <mxCell id="QJeN3EcIffllmoqfH-Ic-93" value="&lt;span style=&quot;text-align: left; font-size: 12px;&quot;&gt;Statistics&lt;/span&gt;" style="rounded=0;whiteSpace=wrap;html=1;fontSize=15;" vertex="1" parent="1">
                    <mxGeometry x="1120" y="127" width="80" height="60" as="geometry"/>
                </mxCell>
                <mxCell id="QJeN3EcIffllmoqfH-Ic-94" value="Statistics: &lt;br&gt;&lt;span style=&quot;white-space: pre;&quot;&gt;&#9;&lt;/span&gt;Average Completion Time&lt;br&gt;&lt;span style=&quot;white-space: pre;&quot;&gt;&#9;&lt;/span&gt;Average Mistakes&lt;br&gt;&lt;span style=&quot;white-space: pre;&quot;&gt;&#9;&lt;/span&gt;Average&amp;nbsp;Puzzle Level" style="text;whiteSpace=wrap;html=1;fontSize=12;" vertex="1" parent="1">
                    <mxGeometry x="1200" y="40" width="187" height="90" as="geometry"/>
                </mxCell>
            </root>
        </mxGraphModel>
    </diagram>
</mxfile>